<svg version="1.1" id="Layer_1" xmlns="http://www.w3.org/2000/svg" xmlns:xlink="http://www.w3.org/1999/xlink" x="0px" y="0px"
	 width="100%" viewBox="0 0 1024 1024" enable-background="new 0 0 1024 1024" xml:space="preserve">
<path fill="#000000" opacity="1.000000" stroke="none" 
	d="
M541.000000,1025.000000 
	C360.666656,1025.000000 180.833328,1025.000000 1.000000,1025.000000 
	C1.000000,683.666687 1.000000,342.333344 1.000000,1.000000 
	C342.333344,1.000000 683.666687,1.000000 1025.000000,1.000000 
	C1025.000000,342.333344 1025.000000,683.666687 1025.000000,1025.000000 
	C863.833313,1025.000000 702.666687,1025.000000 541.000000,1025.000000 
M724.549011,387.341217 
	C725.624451,385.179901 726.344971,382.724030 727.845520,380.915436 
	C731.561523,376.436798 735.400085,372.003845 739.641663,368.036011 
	C742.734009,365.143219 742.497803,362.744446 740.008606,359.991760 
	C732.204346,351.361542 725.248413,341.694489 716.374451,334.349396 
	C683.379211,307.038727 645.184692,299.095306 603.405396,306.345825 
	C601.858765,306.614197 600.224915,306.379944 598.631714,306.379944 
	C598.513977,305.886230 598.396301,305.392517 598.278564,304.898804 
	C599.204407,304.091492 600.007202,303.027557 601.074707,302.515747 
	C615.107788,295.788208 625.908020,284.694061 635.394043,273.205750 
	C645.779297,260.628448 654.244446,246.144196 661.714661,231.553223 
	C674.456482,206.665680 676.602844,179.302292 676.946594,151.830002 
	C676.985107,148.751724 676.170532,145.530655 675.127625,142.597656 
	C672.728271,135.849701 671.279236,134.844147 664.062256,134.999710 
	C642.693604,135.460312 622.156250,140.050064 602.267090,147.763687 
	C571.528137,159.685181 544.828552,177.214020 524.833008,203.893311 
	C512.521057,220.320663 503.706543,238.536469 497.983734,258.259094 
	C497.437866,260.140320 496.389282,261.875671 495.031921,264.877960 
	C492.623901,260.586273 490.913422,257.610657 489.270416,254.598236 
	C470.947784,221.003586 444.287567,196.682526 408.515289,182.846588 
	C388.174316,174.979111 367.076721,170.512573 345.087952,170.913040 
	C340.023865,171.005280 336.892731,172.879837 336.851654,178.024857 
	C336.802979,184.122787 336.751007,190.312256 337.679535,196.310516 
	C341.626953,221.810196 351.738861,245.069107 366.638397,265.808563 
	C375.498901,278.141937 386.979645,288.591431 397.260925,299.907440 
	C398.508087,301.280121 399.621399,302.774445 401.261108,304.780518 
	C399.387726,305.211334 398.470795,305.656586 397.595856,305.585327 
	C391.962189,305.126556 386.338867,304.113251 380.709991,304.098572 
	C359.323151,304.042877 338.522888,307.486176 319.055237,316.656342 
	C291.325836,329.718140 270.199219,349.239746 259.772125,378.916290 
	C259.110016,380.800751 257.589600,382.764374 255.921524,383.853638 
	C243.881378,391.716156 234.139328,401.905457 226.003067,413.587921 
	C208.345810,438.941132 200.602585,466.951324 202.798752,497.983185 
	C205.175140,531.561768 216.687943,560.435608 242.928528,582.492859 
	C245.179947,584.385315 246.138611,586.334351 245.186172,589.439392 
	C240.442535,604.904114 238.830719,620.653748 240.922607,636.791809 
	C243.036209,653.097351 248.349319,668.136963 257.406250,681.878967 
	C270.243927,701.357361 288.141541,714.405273 309.551819,722.934265 
	C313.286804,724.422180 314.540649,726.629333 315.181274,730.648499 
	C317.296082,743.916077 319.082458,757.390076 322.973694,770.182983 
	C328.328064,787.786072 339.668091,801.727539 353.834290,813.524536 
	C370.463226,827.372375 389.293488,835.797424 410.798340,837.851501 
	C414.857758,838.239197 417.045563,839.746399 418.978790,843.061401 
	C439.323334,877.947266 470.484985,893.000305 509.871277,889.614624 
	C541.461914,886.899170 565.228455,870.245422 581.333252,842.750122 
	C582.553528,840.666748 585.524475,838.568604 587.862671,838.341431 
	C611.189270,836.075562 631.544861,827.378052 649.086914,811.761658 
	C672.528687,790.893188 684.269470,764.543884 685.937988,733.571594 
	C686.500488,723.129395 686.078918,724.417480 694.127930,721.309937 
	C696.921326,720.231506 699.672424,719.004456 702.338745,717.641602 
	C725.042908,706.036194 742.537720,689.242310 752.703796,665.616638 
	C763.126831,641.393860 764.983887,616.360535 757.889771,590.890564 
	C756.570190,586.152649 757.711670,583.354858 761.237244,580.092102 
	C767.061462,574.701965 772.807861,568.998474 777.451965,562.602844 
	C795.353760,537.949402 799.858826,510.310577 793.626648,480.884155 
	C790.134827,464.396942 784.295776,448.865326 770.571960,437.662384 
	C767.814392,435.411346 769.404663,433.336945 771.216675,431.309235 
	C781.970154,419.275635 792.750000,407.264221 803.364807,395.108948 
	C806.228516,391.829651 808.407654,391.754791 811.553162,394.793854 
	C817.654053,400.688446 824.128601,406.194275 830.366455,411.949982 
	C834.515137,415.778107 838.869507,418.339111 844.773132,416.034424 
	C850.797668,413.682587 852.412476,408.786072 853.083923,402.975891 
	C854.858765,387.617828 856.894897,372.290161 858.735352,356.939423 
	C860.576172,341.585358 862.705688,326.250183 863.946716,310.845367 
	C864.802551,300.221252 858.951172,295.629547 848.360413,297.237244 
	C822.372070,301.182343 796.372742,305.056091 770.396057,309.076050 
	C765.162842,309.885895 759.764099,310.575287 754.877625,312.454041 
	C747.522034,315.282166 745.674133,322.678497 750.841309,328.577850 
	C757.624817,336.322540 764.911255,343.643280 772.228760,350.896912 
	C776.044434,354.679291 776.631409,356.476593 773.155212,360.446014 
	C761.205383,374.091583 749.368042,387.845886 737.079773,401.182770 
	C709.779236,430.812988 682.155884,460.145630 654.818420,489.742126 
	C642.286865,503.309235 630.150635,517.240845 617.777466,530.955139 
	C605.623962,544.425964 593.370483,557.806580 581.224487,571.284180 
	C578.666748,574.122375 576.620667,574.202881 573.780029,571.439148 
	C557.072266,555.184326 540.233093,539.064514 523.417664,522.920532 
	C507.439423,507.580292 491.542908,492.152374 475.392853,476.994812 
	C468.620117,470.638275 460.486542,467.877625 451.014008,469.860779 
	C443.384125,471.458160 438.020355,476.376129 432.880829,481.635559 
	C407.032166,508.087219 381.317169,534.670105 355.364136,561.018677 
	C348.717804,567.766296 341.106934,573.560303 334.412659,580.265076 
	C321.349152,593.348999 308.637634,606.783997 295.715759,620.010498 
	C294.768036,620.980591 293.300781,621.443115 291.729797,622.356323 
	C290.793091,621.449036 289.106323,620.595520 289.036743,619.625977 
	C288.408691,610.871887 289.454346,602.569763 296.323029,596.051697 
	C300.463562,592.122498 304.550751,588.123169 308.451813,583.958557 
	C315.708282,576.211609 322.695038,568.210388 330.005524,560.515991 
	C340.756989,549.199829 351.674652,538.041199 362.556824,526.849731 
	C375.867279,513.161011 389.116302,499.410309 402.581146,485.874634 
	C411.064270,477.346802 419.653503,468.894501 428.621796,460.886139 
	C444.092773,447.071106 459.351868,446.239929 475.864441,454.212830 
	C483.516602,457.907593 490.070831,464.245636 496.452484,470.114258 
	C505.581116,478.509094 513.962769,487.709900 522.907104,496.313202 
	C532.734680,505.766052 542.860901,514.907715 552.814270,524.230591 
	C559.466248,530.461243 566.642883,536.273254 572.430298,543.232605 
	C575.923218,547.432800 577.557678,547.133362 580.695190,543.704468 
	C589.238770,534.367615 597.900330,525.138550 606.536255,515.886536 
	C616.460144,505.254791 626.494080,494.724335 636.320068,484.003082 
	C647.285706,472.038391 658.008606,459.851410 668.953918,447.867798 
	C678.953003,436.920166 689.136658,426.141418 699.185364,415.238861 
	C707.587280,406.123016 715.911804,396.935791 724.549011,387.341217 
M763.344543,608.193665 
	C763.344543,618.130737 763.344543,628.067810 763.344543,638.004883 
	C763.492188,638.017090 763.639771,638.029297 763.787415,638.041504 
	C763.787415,628.210083 763.787415,618.378723 763.344543,608.193665 
z"/>
<path fill="#0E2733" opacity="1.000000" stroke="none" 
	d="
M292.075073,622.141602 
	C293.300781,621.443115 294.768036,620.980591 295.715759,620.010498 
	C308.637634,606.783997 321.349152,593.348999 334.412659,580.265076 
	C341.106934,573.560303 348.717804,567.766296 355.364136,561.018677 
	C381.317169,534.670105 407.032166,508.087219 432.880829,481.635559 
	C438.020355,476.376129 443.384125,471.458160 451.014008,469.860779 
	C460.486542,467.877625 468.620117,470.638275 475.392853,476.994812 
	C491.542908,492.152374 507.439423,507.580292 523.417664,522.920532 
	C540.233093,539.064514 557.072266,555.184326 573.780029,571.439148 
	C576.620667,574.202881 578.666748,574.122375 581.224487,571.284180 
	C593.370483,557.806580 605.623962,544.425964 617.777466,530.955139 
	C630.150635,517.240845 642.286865,503.309235 654.818420,489.742126 
	C682.155884,460.145630 709.779236,430.812988 737.079773,401.182770 
	C749.368042,387.845886 761.205383,374.091583 773.155212,360.446014 
	C776.631409,356.476593 776.044434,354.679291 772.228760,350.896912 
	C764.911255,343.643280 757.624817,336.322540 750.841309,328.577850 
	C745.674133,322.678497 747.522034,315.282166 754.877625,312.454041 
	C759.764099,310.575287 765.162842,309.885895 770.396057,309.076050 
	C796.372742,305.056091 822.372070,301.182343 848.360413,297.237244 
	C858.951172,295.629547 864.802551,300.221252 863.946716,310.845367 
	C862.705688,326.250183 860.576172,341.585358 858.735352,356.939423 
	C856.894897,372.290161 854.858765,387.617828 853.083923,402.975891 
	C852.412476,408.786072 850.797668,413.682587 844.773132,416.034424 
	C838.869507,418.339111 834.515137,415.778107 830.366455,411.949982 
	C824.128601,406.194275 817.654053,400.688446 811.553162,394.793854 
	C808.407654,391.754791 806.228516,391.829651 803.364807,395.108948 
	C792.750000,407.264221 781.970154,419.275635 771.216675,431.309235 
	C769.404663,433.336945 767.814392,435.411346 770.571960,437.662384 
	C784.295776,448.865326 790.134827,464.396942 793.626648,480.884155 
	C799.858826,510.310577 795.353760,537.949402 777.451965,562.602844 
	C772.807861,568.998474 767.061462,574.701965 761.237244,580.092102 
	C757.711670,583.354858 756.570190,586.152649 757.889771,590.890564 
	C764.983887,616.360535 763.126831,641.393860 752.703796,665.616638 
	C742.537720,689.242310 725.042908,706.036194 702.338745,717.641602 
	C699.672424,719.004456 696.921326,720.231506 694.127930,721.309937 
	C686.078918,724.417480 686.500488,723.129395 685.937988,733.571594 
	C684.269470,764.543884 672.528687,790.893188 649.086914,811.761658 
	C631.544861,827.378052 611.189270,836.075562 587.862671,838.341431 
	C585.524475,838.568604 582.553528,840.666748 581.333252,842.750122 
	C565.228455,870.245422 541.461914,886.899170 509.871277,889.614624 
	C470.484985,893.000305 439.323334,877.947266 418.978790,843.061401 
	C417.045563,839.746399 414.857758,838.239197 410.798340,837.851501 
	C389.293488,835.797424 370.463226,827.372375 353.834290,813.524536 
	C339.668091,801.727539 328.328064,787.786072 322.973694,770.182983 
	C319.082458,757.390076 317.296082,743.916077 315.181274,730.648499 
	C314.540649,726.629333 313.286804,724.422180 309.551819,722.934265 
	C288.141541,714.405273 270.243927,701.357361 257.406250,681.878967 
	C248.349319,668.136963 243.036209,653.097351 240.922607,636.791809 
	C238.830719,620.653748 240.442535,604.904114 245.186172,589.439392 
	C246.138611,586.334351 245.179947,584.385315 242.928528,582.492859 
	C216.687943,560.435608 205.175140,531.561768 202.798752,497.983185 
	C200.602585,466.951324 208.345810,438.941132 226.003067,413.587921 
	C234.139328,401.905457 243.881378,391.716156 255.921524,383.853638 
	C257.589600,382.764374 259.110016,380.800751 259.772125,378.916290 
	C270.199219,349.239746 291.325836,329.718140 319.055237,316.656342 
	C338.522888,307.486176 359.323151,304.042877 380.709991,304.098572 
	C386.338867,304.113251 391.962189,305.126556 397.595856,305.585327 
	C398.470795,305.656586 399.387726,305.211334 401.261108,304.780518 
	C399.621399,302.774445 398.508087,301.280121 397.260925,299.907440 
	C386.979645,288.591431 375.498901,278.141937 366.638397,265.808563 
	C351.738861,245.069107 341.626953,221.810196 337.679535,196.310516 
	C336.751007,190.312256 336.802979,184.122787 336.851654,178.024857 
	C336.892731,172.879837 340.023865,171.005280 345.087952,170.913040 
	C367.076721,170.512573 388.174316,174.979111 408.515289,182.846588 
	C444.287567,196.682526 470.947784,221.003586 489.270416,254.598236 
	C490.913422,257.610657 492.623901,260.586273 495.031921,264.877960 
	C496.389282,261.875671 497.437866,260.140320 497.983734,258.259094 
	C503.706543,238.536469 512.521057,220.320663 524.833008,203.893311 
	C544.828552,177.214020 571.528137,159.685181 602.267090,147.763687 
	C622.156250,140.050064 642.693604,135.460312 664.062256,134.999710 
	C671.279236,134.844147 672.728271,135.849701 675.127625,142.597656 
	C676.170532,145.530655 676.985107,148.751724 676.946594,151.830002 
	C676.602844,179.302292 674.456482,206.665680 661.714661,231.553223 
	C654.244446,246.144196 645.779297,260.628448 635.394043,273.205750 
	C625.908020,284.694061 615.107788,295.788208 601.074707,302.515747 
	C600.007202,303.027557 599.204407,304.091492 598.278564,304.898804 
	C598.396301,305.392517 598.513977,305.886230 598.631714,306.379944 
	C600.224915,306.379944 601.858765,306.614197 603.405396,306.345825 
	C645.184692,299.095306 683.379211,307.038727 716.374451,334.349396 
	C725.248413,341.694489 732.204346,351.361542 740.008606,359.991760 
	C742.497803,362.744446 742.734009,365.143219 739.641663,368.036011 
	C735.400085,372.003845 731.561523,376.436798 727.845520,380.915436 
	C726.344971,382.724030 725.624451,385.179901 724.104797,387.376923 
	C720.091370,381.465363 717.285889,374.860962 712.827393,369.678864 
	C686.574890,339.165649 652.981079,327.933289 613.546570,333.537201 
	C603.548950,334.957916 593.838318,337.907532 584.258301,343.495697 
	C596.475464,353.916046 604.210876,366.895447 609.852783,381.569550 
	C617.211731,399.405090 618.987732,417.425140 614.741882,435.933044 
	C614.821350,435.883331 614.719421,435.726013 614.475769,435.972351 
	C613.344971,438.367432 612.457886,440.516113 611.610046,442.680847 
	C611.649353,442.696899 611.675476,442.616180 611.449341,442.779480 
	C611.092041,443.288025 610.960876,443.633209 610.873535,443.961060 
	C610.917297,443.943726 610.881226,443.856720 610.672119,443.962769 
	C610.202454,444.276428 610.062500,444.546539 609.722595,445.055634 
	C603.146790,449.736938 595.596558,447.999359 593.224304,440.859528 
	C591.697021,436.262939 591.175903,431.175629 591.075439,426.290344 
	C590.761169,411.004639 588.938232,395.812744 582.096313,382.194427 
	C574.209595,366.496643 562.089111,353.883881 546.376587,345.678009 
	C538.862549,341.753845 530.300049,339.837219 521.869629,336.816528 
	C507.589325,333.539154 493.674255,332.979034 479.409851,336.979675 
	C453.851440,343.256836 434.459686,357.223907 423.141754,380.825043 
	C419.798767,387.796112 418.972839,395.974182 416.865784,404.031921 
	C416.386414,413.260925 416.034698,422.057159 415.726440,430.869568 
	C415.769897,430.885773 415.728668,430.802673 415.525269,431.073975 
	C415.127380,432.238251 414.932922,433.131256 414.861816,433.987488 
	C414.985107,433.950714 414.911041,433.704254 414.659119,433.818756 
	C414.268555,434.265686 414.129944,434.598083 413.716492,435.133545 
	C412.393524,436.401276 411.463745,437.625702 410.277588,438.503906 
	C404.091309,443.084137 396.236206,441.309631 393.660065,434.599030 
	C390.476410,426.306061 388.268158,417.751587 389.207306,408.755585 
	C391.557770,386.240967 398.732117,365.671600 413.949799,348.414948 
	C415.426880,346.739990 416.853271,345.020355 418.986267,342.521088 
	C413.159454,340.471008 408.215271,338.731506 402.948059,336.765198 
	C401.355377,336.225098 400.085724,335.911804 398.725647,335.616455 
	C398.635223,335.634399 398.669708,335.815552 398.358063,335.539246 
	C395.021484,334.727081 391.996521,334.191223 388.816345,333.623596 
	C388.661133,333.591858 388.593872,333.901489 388.238281,333.626862 
	C378.723022,333.532593 369.563324,333.712952 360.353180,333.730865 
	C360.302734,333.568420 359.976624,333.665222 359.555847,333.661224 
	C355.868317,334.378052 352.601532,335.098877 348.966644,335.792053 
	C342.790009,337.741699 336.732208,339.189423 331.215393,341.786469 
	C305.057373,354.100250 285.128815,372.006317 278.810852,401.767761 
	C278.592499,402.796417 277.325378,403.872681 276.281311,404.415283 
	C260.699860,412.512085 250.097061,425.501312 240.856049,440.245758 
	C240.442535,440.950470 240.218384,441.447113 239.874832,442.046082 
	C239.755417,442.148376 239.695587,442.457123 239.463684,442.730347 
	C231.151123,460.674835 228.407288,479.365204 229.819717,498.534088 
	C230.432648,506.852600 233.046295,515.023682 234.781937,523.186523 
	C234.812668,523.111267 234.660934,523.052795 234.682571,523.418335 
	C235.397949,525.273987 236.091690,526.764099 236.813599,528.175293 
	C236.841751,528.096375 236.683044,528.042725 236.700180,528.380127 
	C237.113480,529.484741 237.509628,530.252014 237.897095,531.051941 
	C237.888382,531.084656 237.953766,531.102356 238.009232,531.424194 
	C238.617889,532.679321 239.171082,533.612488 239.756088,534.687134 
	C239.787903,534.828552 240.029678,534.988586 240.083298,535.270874 
	C240.460510,536.027283 240.784088,536.501404 241.149521,537.315063 
	C253.116455,558.101013 271.835449,570.256836 293.075653,578.500427 
	C289.142242,587.854736 285.748962,595.924500 282.159210,604.461548 
	C277.716370,602.855103 273.433746,601.306580 268.645721,599.575317 
	C268.043457,601.887695 267.381836,603.739502 267.093048,605.647827 
	C265.118317,618.697876 266.366302,631.600708 269.674500,644.253052 
	C283.909821,698.696777 353.916687,722.718262 394.009674,687.698059 
	C402.967102,679.874023 403.874603,682.437317 397.933960,670.762329 
	C390.308899,655.776855 386.752441,640.247681 391.775055,623.538391 
	C393.735840,617.015320 397.359406,614.702637 403.978760,616.487305 
	C410.529541,618.253479 414.430054,623.615906 414.991913,632.023560 
	C415.649994,641.871521 417.743561,651.289978 421.119598,660.638977 
	C429.172424,682.939087 445.765045,696.243958 466.294006,705.787720 
	C467.004333,706.548401 467.788696,707.444702 468.737274,707.680542 
	C476.773315,709.678284 484.758270,712.100037 492.919312,713.313843 
	C500.868378,714.496155 509.069305,715.312744 517.254883,711.876892 
	C524.846069,709.111511 532.275330,706.777100 539.175171,703.370483 
	C557.076538,694.531921 566.725586,678.471008 574.987732,661.266296 
	C576.611389,657.885254 578.747253,654.600342 581.268677,651.838745 
	C584.339111,648.475891 588.679810,648.066589 592.866882,649.394958 
	C597.250610,650.785767 599.959656,654.225098 599.927673,658.727295 
	C599.895203,663.307312 599.307495,668.048218 597.950684,672.403381 
	C596.798706,676.100891 597.243164,678.524109 599.819763,681.328247 
	C614.799744,697.631042 634.807556,702.622498 655.220032,702.159363 
	C700.448853,701.133240 741.957336,662.234253 736.811035,608.685059 
	C736.582397,606.305481 735.676758,603.990967 734.980469,601.225281 
	C721.030151,607.768921 706.838196,610.106445 692.205322,610.010132 
	C680.270996,609.931580 669.128479,607.000610 659.399841,599.839294 
	C654.342773,596.116638 653.328186,590.706787 656.142883,584.709473 
	C658.900024,578.834778 662.470398,577.091736 669.087708,578.575012 
	C672.167297,579.265320 675.145630,580.550537 678.250061,580.964539 
	C708.620483,585.015137 733.563965,574.802124 753.052551,551.496765 
	C767.423584,534.311096 770.533997,513.736816 768.645203,492.233429 
	C767.397461,478.028351 762.103638,465.530396 749.066467,456.200562 
	C748.501282,457.130096 748.039673,458.259186 747.267883,459.105377 
	C710.588196,499.321350 673.856750,539.490051 637.190674,579.718445 
	C623.056274,595.226074 609.049561,610.850159 595.015869,626.449280 
	C591.174194,630.719482 586.396484,632.256958 580.746704,632.310059 
	C572.965088,632.383057 566.503601,629.680847 560.912109,624.388855 
	C550.631836,614.659363 540.260376,605.026245 529.944397,595.334351 
	C521.097107,587.022339 512.182007,578.779541 503.461914,570.335754 
	C489.845123,557.150452 476.525024,543.654846 462.754120,530.634521 
	C457.222351,525.404175 456.718475,525.707031 451.496918,530.977905 
	C418.567413,564.218567 385.667297,597.488464 352.814240,630.804626 
	C343.575226,640.173889 334.510620,649.715515 325.395996,659.206848 
	C319.055969,665.808838 311.684662,668.624451 302.823090,665.042175 
	C289.663086,659.722351 278.091583,639.479492 290.232361,625.034790 
	C291.076447,624.130676 291.677856,623.133789 292.228851,622.164917 
	C292.178436,622.192993 292.075073,622.141602 292.075073,622.141602 
M614.193359,721.271729 
	C603.256348,714.173523 592.319336,707.075256 581.087524,699.785645 
	C581.480774,699.544617 581.149353,699.661926 580.940613,699.891052 
	C580.156677,700.751526 579.446838,701.680664 578.648743,702.526917 
	C561.987061,720.194092 544.039246,735.732788 518.705200,739.370911 
	C517.503174,739.543518 515.902893,741.520264 515.630127,742.885071 
	C512.588806,758.102417 516.247620,772.192810 524.800537,784.643311 
	C539.867432,806.576233 569.441772,817.173584 595.000244,810.278748 
	C623.606323,802.561768 643.450989,784.804565 654.165283,757.128723 
	C657.397400,748.780090 659.625977,740.142090 658.958252,730.911377 
	C643.598267,729.522827 628.678955,728.149292 614.193359,721.271729 
M462.989441,733.540527 
	C445.661926,726.783752 431.328400,715.532959 417.971222,702.776123 
	C407.356354,712.716980 395.834717,720.173157 382.820435,725.151184 
	C369.825348,730.121887 356.203125,731.726501 342.400360,731.417236 
	C341.346161,785.728638 398.043182,825.831360 448.177673,806.624573 
	C462.357056,801.192322 475.251312,793.308350 482.340820,779.128967 
	C488.216980,767.376465 490.473694,754.886719 485.781891,741.925293 
	C484.536041,738.483704 482.318390,737.268555 478.692932,736.884033 
	C473.644470,736.348572 468.691589,734.911316 462.989441,733.540527 
M578.649536,285.161957 
	C603.520203,270.657257 623.878784,251.810043 635.985779,225.145355 
	C644.848816,205.625122 648.946106,184.968369 650.912109,163.919739 
	C629.334045,165.180359 610.195984,172.001999 591.960449,181.820007 
	C552.207764,203.222794 524.427795,233.440292 519.470154,280.361267 
	C518.522400,289.330688 518.342285,298.381195 517.789062,307.713257 
	C539.892639,303.767395 559.216919,295.372498 578.649536,285.161957 
M439.800751,294.706696 
	C452.989319,300.880920 466.573608,305.873810 481.105774,309.246704 
	C473.873016,273.371307 455.060608,242.791534 428.785919,224.404297 
	C409.065857,210.604034 387.495667,201.434036 362.689423,199.034210 
	C369.825439,218.905060 378.561401,237.013184 390.805206,253.508865 
	C403.786621,270.998322 419.798981,284.559753 439.800751,294.706696 
M525.200989,859.755127 
	C536.554016,854.972778 546.062378,847.877014 553.871277,837.448242 
	C532.726807,830.233154 516.088013,817.860657 502.685974,799.016174 
	C501.581787,801.107056 501.317169,801.977844 500.767487,802.594421 
	C487.932892,816.989319 473.029663,828.282349 454.218567,833.809570 
	C451.662445,834.560608 449.324188,836.053223 446.794586,837.245117 
	C462.605743,860.637634 496.936401,870.465210 525.200989,859.755127 
z"/>
<path fill="#F94161" opacity="1.000000" stroke="none" 
	d="
M609.810425,381.265930 
	C604.210876,366.895447 596.475464,353.916046 584.258301,343.495697 
	C593.838318,337.907532 603.548950,334.957916 613.546570,333.537201 
	C652.981079,327.933289 686.574890,339.165649 712.827393,369.678864 
	C717.285889,374.860962 720.091370,381.465363 723.965576,387.596375 
	C715.911804,396.935791 707.587280,406.123016 699.185364,415.238861 
	C689.136658,426.141418 678.953003,436.920166 668.953918,447.867798 
	C658.008606,459.851410 647.285706,472.038391 636.320068,484.003082 
	C626.494080,494.724335 616.460144,505.254791 606.536255,515.886536 
	C597.900330,525.138550 589.238770,534.367615 580.695190,543.704468 
	C577.557678,547.133362 575.923218,547.432800 572.430298,543.232605 
	C566.642883,536.273254 559.466248,530.461243 552.814270,524.230591 
	C542.860901,514.907715 532.734680,505.766052 522.907104,496.313202 
	C513.962769,487.709900 505.581116,478.509094 496.452484,470.114258 
	C490.070831,464.245636 483.516602,457.907593 475.864441,454.212830 
	C459.351868,446.239929 444.092773,447.071106 428.621796,460.886139 
	C419.653503,468.894501 411.064270,477.346802 402.581146,485.874634 
	C389.116302,499.410309 375.867279,513.161011 362.556824,526.849731 
	C351.674652,538.041199 340.756989,549.199829 330.005524,560.515991 
	C322.695038,568.210388 315.708282,576.211609 308.451813,583.958557 
	C304.550751,588.123169 300.463562,592.122498 296.323029,596.051697 
	C289.454346,602.569763 288.408691,610.871887 289.036743,619.625977 
	C289.106323,620.595520 290.793091,621.449036 291.902435,622.248962 
	C292.075073,622.141602 292.178436,622.192993 291.903992,622.186279 
	C291.082947,623.100403 290.536346,624.021240 289.989746,624.942017 
	C278.091583,639.479492 289.663086,659.722351 302.823090,665.042175 
	C311.684662,668.624451 319.055969,665.808838 325.395996,659.206848 
	C334.510620,649.715515 343.575226,640.173889 352.814240,630.804626 
	C385.667297,597.488464 418.567413,564.218567 451.496918,530.977905 
	C456.718475,525.707031 457.222351,525.404175 462.754120,530.634521 
	C476.525024,543.654846 489.845123,557.150452 503.461914,570.335754 
	C512.182007,578.779541 521.097107,587.022339 529.944397,595.334351 
	C540.260376,605.026245 550.631836,614.659363 560.912109,624.388855 
	C566.503601,629.680847 572.965088,632.383057 580.746704,632.310059 
	C586.396484,632.256958 591.174194,630.719482 595.015869,626.449280 
	C609.049561,610.850159 623.056274,595.226074 637.190674,579.718445 
	C673.856750,539.490051 710.588196,499.321350 747.267883,459.105377 
	C748.039673,458.259186 748.501282,457.130096 749.066467,456.200562 
	C762.103638,465.530396 767.397461,478.028351 768.645203,492.233429 
	C770.533997,513.736816 767.423584,534.311096 753.052551,551.496765 
	C733.563965,574.802124 708.620483,585.015137 678.250061,580.964539 
	C675.145630,580.550537 672.167297,579.265320 669.087708,578.575012 
	C662.470398,577.091736 658.900024,578.834778 656.142883,584.709473 
	C653.328186,590.706787 654.342773,596.116638 659.399841,599.839294 
	C669.128479,607.000610 680.270996,609.931580 692.205322,610.010132 
	C706.838196,610.106445 721.030151,607.768921 734.980469,601.225281 
	C735.676758,603.990967 736.582397,606.305481 736.811035,608.685059 
	C741.957336,662.234253 700.448853,701.133240 655.220032,702.159363 
	C634.807556,702.622498 614.799744,697.631042 599.819763,681.328247 
	C597.243164,678.524109 596.798706,676.100891 597.950684,672.403381 
	C599.307495,668.048218 599.895203,663.307312 599.927673,658.727295 
	C599.959656,654.225098 597.250610,650.785767 592.866882,649.394958 
	C588.679810,648.066589 584.339111,648.475891 581.268677,651.838745 
	C578.747253,654.600342 576.611389,657.885254 574.987732,661.266296 
	C566.725586,678.471008 557.076538,694.531921 539.175171,703.370483 
	C532.275330,706.777100 524.846069,709.111511 516.986938,711.666077 
	C499.050903,715.001160 482.657104,711.089294 466.444153,705.617126 
	C445.765045,696.243958 429.172424,682.939087 421.119598,660.638977 
	C417.743561,651.289978 415.649994,641.871521 414.991913,632.023560 
	C414.430054,623.615906 410.529541,618.253479 403.978760,616.487305 
	C397.359406,614.702637 393.735840,617.015320 391.775055,623.538391 
	C386.752441,640.247681 390.308899,655.776855 397.933960,670.762329 
	C403.874603,682.437317 402.967102,679.874023 394.009674,687.698059 
	C353.916687,722.718262 283.909821,698.696777 269.674500,644.253052 
	C266.366302,631.600708 265.118317,618.697876 267.093048,605.647827 
	C267.381836,603.739502 268.043457,601.887695 268.645721,599.575317 
	C273.433746,601.306580 277.716370,602.855103 282.159210,604.461548 
	C285.748962,595.924500 289.142242,587.854736 293.075653,578.500427 
	C271.835449,570.256836 253.116455,558.101013 241.213806,537.112976 
	C240.834045,536.043823 240.431870,535.516235 240.029694,534.988586 
	C240.029678,534.988586 239.787903,534.828552 239.767914,534.338623 
	C239.149872,532.933289 238.551819,532.017822 237.953766,531.102356 
	C237.953766,531.102356 237.888382,531.084656 237.895630,530.719299 
	C237.496277,529.583557 237.089661,528.813110 236.683044,528.042725 
	C236.683044,528.042725 236.841751,528.096375 236.812286,527.807007 
	C236.075516,526.029297 235.368225,524.541077 234.660934,523.052795 
	C234.660934,523.052795 234.812668,523.111267 234.813004,522.773315 
	C234.729660,521.779175 234.726273,521.100647 234.550674,520.470093 
	C229.272797,501.519562 229.774887,482.465820 233.876968,463.442078 
	C235.404449,456.358215 237.732559,449.447052 239.695587,442.457123 
	C239.695587,442.457123 239.755417,442.148376 240.091278,441.866852 
	C240.633240,441.069458 240.839340,440.553589 241.045410,440.037720 
	C250.097061,425.501312 260.699860,412.512085 276.281311,404.415283 
	C277.325378,403.872681 278.592499,402.796417 278.810852,401.767761 
	C285.128815,372.006317 305.057373,354.100250 331.215393,341.786469 
	C336.732208,339.189423 342.790009,337.741699 349.437775,335.827881 
	C353.510223,335.149292 356.743408,334.407257 359.976624,333.665222 
	C359.976624,333.665222 360.302734,333.568420 360.860809,333.747681 
	C370.477203,333.918457 379.535553,333.909973 388.593872,333.901489 
	C388.593872,333.901489 388.661133,333.591858 389.101196,333.892914 
	C392.584076,334.734497 395.626892,335.275024 398.669708,335.815552 
	C398.669708,335.815552 398.635223,335.634399 399.030701,335.882263 
	C400.707825,336.417389 401.989471,336.704712 403.271118,336.992004 
	C408.215271,338.731506 413.159454,340.471008 418.986267,342.521088 
	C416.853271,345.020355 415.426880,346.739990 413.949799,348.414948 
	C398.732117,365.671600 391.557770,386.240967 389.207306,408.755585 
	C388.268158,417.751587 390.476410,426.306061 393.660065,434.599030 
	C396.236206,441.309631 404.091309,443.084137 410.277588,438.503906 
	C411.463745,437.625702 412.393524,436.401276 413.912506,434.966064 
	C414.559265,434.298462 414.735168,434.001373 414.911041,433.704254 
	C414.911041,433.704254 414.985107,433.950714 415.090759,433.718353 
	C415.373871,432.591553 415.551270,431.697113 415.728668,430.802673 
	C415.728668,430.802673 415.769897,430.885773 416.001953,430.566956 
	C416.487152,421.365112 416.740295,412.482147 416.993439,403.599152 
	C418.972839,395.974182 419.798767,387.796112 423.141754,380.825043 
	C434.459686,357.223907 453.851440,343.256836 479.865662,337.022156 
	C494.545013,337.054626 508.378723,337.032990 522.212463,337.011322 
	C530.300049,339.837219 538.862549,341.753845 546.376587,345.678009 
	C562.089111,353.883881 574.209595,366.496643 582.096313,382.194427 
	C588.938232,395.812744 590.761169,411.004639 591.075439,426.290344 
	C591.175903,431.175629 591.697021,436.262939 593.224304,440.859528 
	C595.596558,447.999359 603.146790,449.736938 609.881775,445.102539 
	C610.534668,444.600800 610.707947,444.228760 610.881226,443.856720 
	C610.881226,443.856720 610.917297,443.943726 611.063965,443.766083 
	C611.365601,443.264374 611.520569,442.940277 611.675476,442.616180 
	C611.675476,442.616180 611.649353,442.696899 611.948975,442.572083 
	C613.072266,440.206848 613.895874,437.966431 614.719482,435.726013 
	C614.719421,435.726013 614.821350,435.883331 615.000122,435.653259 
	C621.282715,416.831726 617.800293,398.970795 611.010254,381.377533 
	C610.945862,381.210815 610.224854,381.297516 609.810425,381.265930 
z"/>
<path fill="#09232F" opacity="1.000000" stroke="none" 
	d="
M763.565979,608.370483 
	C763.787415,618.378723 763.787415,628.210083 763.787415,638.041504 
	C763.639771,638.029297 763.492188,638.017090 763.344543,638.004883 
	C763.344543,628.067810 763.344543,618.130737 763.565979,608.370483 
z"/>
<path fill="#F84162" opacity="1.000000" stroke="none" 
	d="
M614.530518,721.448608 
	C628.678955,728.149292 643.598267,729.522827 658.958252,730.911377 
	C659.625977,740.142090 657.397400,748.780090 654.165283,757.128723 
	C643.450989,784.804565 623.606323,802.561768 595.000244,810.278748 
	C569.441772,817.173584 539.867432,806.576233 524.800537,784.643311 
	C516.247620,772.192810 512.588806,758.102417 515.630127,742.885071 
	C515.902893,741.520264 517.503174,739.543518 518.705200,739.370911 
	C544.039246,735.732788 561.987061,720.194092 578.648743,702.526917 
	C579.446838,701.680664 580.156677,700.751526 580.940613,699.891052 
	C581.149353,699.661926 581.480774,699.544617 581.087524,699.785645 
	C592.319336,707.075256 603.256348,714.173523 614.530518,721.448608 
z"/>
<path fill="#F94162" opacity="1.000000" stroke="none" 
	d="
M463.343628,733.700256 
	C468.691589,734.911316 473.644470,736.348572 478.692932,736.884033 
	C482.318390,737.268555 484.536041,738.483704 485.781891,741.925293 
	C490.473694,754.886719 488.216980,767.376465 482.340820,779.128967 
	C475.251312,793.308350 462.357056,801.192322 448.177673,806.624573 
	C398.043182,825.831360 341.346161,785.728638 342.400360,731.417236 
	C356.203125,731.726501 369.825348,730.121887 382.820435,725.151184 
	C395.834717,720.173157 407.356354,712.716980 417.971222,702.776123 
	C431.328400,715.532959 445.661926,726.783752 463.343628,733.700256 
z"/>
<path fill="#54AB65" opacity="1.000000" stroke="none" 
	d="
M578.327942,285.347107 
	C559.216919,295.372498 539.892639,303.767395 517.789062,307.713257 
	C518.342285,298.381195 518.522400,289.330688 519.470154,280.361267 
	C524.427795,233.440292 552.207764,203.222794 591.960449,181.820007 
	C610.195984,172.001999 629.334045,165.180359 650.912109,163.919739 
	C648.946106,184.968369 644.848816,205.625122 635.985779,225.145355 
	C623.878784,251.810043 603.520203,270.657257 578.327942,285.347107 
z"/>
<path fill="#55AB65" opacity="1.000000" stroke="none" 
	d="
M439.472534,294.526672 
	C419.798981,284.559753 403.786621,270.998322 390.805206,253.508865 
	C378.561401,237.013184 369.825439,218.905060 362.689423,199.034210 
	C387.495667,201.434036 409.065857,210.604034 428.785919,224.404297 
	C455.060608,242.791534 473.873016,273.371307 481.105774,309.246704 
	C466.573608,305.873810 452.989319,300.880920 439.472534,294.526672 
z"/>
<path fill="#F84262" opacity="1.000000" stroke="none" 
	d="
M524.844238,859.898804 
	C496.936401,870.465210 462.605743,860.637634 446.794586,837.245117 
	C449.324188,836.053223 451.662445,834.560608 454.218567,833.809570 
	C473.029663,828.282349 487.932892,816.989319 500.767487,802.594421 
	C501.317169,801.977844 501.581787,801.107056 502.685974,799.016174 
	C516.088013,817.860657 532.726807,830.233154 553.871277,837.448242 
	C546.062378,847.877014 536.554016,854.972778 524.844238,859.898804 
z"/>
<path fill="#DE5672" opacity="1.000000" stroke="none" 
	d="
M239.463669,442.730347 
	C237.732559,449.447052 235.404449,456.358215 233.876968,463.442078 
	C229.774887,482.465820 229.272797,501.519562 234.550674,520.470093 
	C234.726273,521.100647 234.729660,521.779175 234.782272,522.848511 
	C233.046295,515.023682 230.432648,506.852600 229.819717,498.534088 
	C228.407288,479.365204 231.151123,460.674835 239.463669,442.730347 
z"/>
<path fill="#E25A74" opacity="1.000000" stroke="none" 
	d="
M609.852783,381.569580 
	C610.224854,381.297516 610.945862,381.210815 611.010254,381.377533 
	C617.800293,398.970795 621.282715,416.831726 614.920654,435.702942 
	C618.987732,417.425140 617.211731,399.405090 609.852783,381.569580 
z"/>
<path fill="#1C0F1D" opacity="1.000000" stroke="none" 
	d="
M466.294006,705.787720 
	C482.657104,711.089294 499.050903,715.001160 516.583801,711.608521 
	C509.069305,715.312744 500.868378,714.496155 492.919312,713.313843 
	C484.758270,712.100037 476.773315,709.678284 468.737274,707.680542 
	C467.788696,707.444702 467.004333,706.548401 466.294006,705.787720 
z"/>
<path fill="#D15871" opacity="1.000000" stroke="none" 
	d="
M521.869629,336.816528 
	C508.378723,337.032990 494.545013,337.054626 480.255493,337.033752 
	C493.674255,332.979034 507.589325,333.539154 521.869629,336.816528 
z"/>
<path fill="#E95C79" opacity="1.000000" stroke="none" 
	d="
M388.238281,333.626831 
	C379.535553,333.909973 370.477203,333.918457 360.911255,333.910126 
	C369.563324,333.712952 378.723022,333.532593 388.238281,333.626831 
z"/>
<path fill="#E06781" opacity="1.000000" stroke="none" 
	d="
M416.865784,404.031921 
	C416.740295,412.482147 416.487152,421.365112 415.958496,430.550720 
	C416.034698,422.057159 416.386414,413.260925 416.865784,404.031921 
z"/>
<path fill="#E95C79" opacity="1.000000" stroke="none" 
	d="
M359.555847,333.661224 
	C356.743408,334.407257 353.510223,335.149292 349.805878,335.855530 
	C352.601532,335.098877 355.868317,334.378052 359.555847,333.661224 
z"/>
<path fill="#E25A74" opacity="1.000000" stroke="none" 
	d="
M614.475830,435.972351 
	C613.895874,437.966431 613.072266,440.206848 611.909668,442.556030 
	C612.457886,440.516113 613.344971,438.367432 614.475830,435.972351 
z"/>
<path fill="#E95C79" opacity="1.000000" stroke="none" 
	d="
M398.358063,335.539246 
	C395.626892,335.275024 392.584076,334.734497 389.256409,333.924683 
	C391.996521,334.191223 395.021484,334.727081 398.358063,335.539246 
z"/>
<path fill="#DE5672" opacity="1.000000" stroke="none" 
	d="
M234.682571,523.418335 
	C235.368225,524.541077 236.075516,526.029297 236.784119,527.885864 
	C236.091690,526.764099 235.397949,525.273987 234.682571,523.418335 
z"/>
<path fill="#000000" opacity="1.000000" stroke="none" 
	d="
M290.232391,625.034790 
	C290.536346,624.021240 291.082947,623.100403 291.954407,622.158203 
	C291.677856,623.133789 291.076447,624.130676 290.232391,625.034790 
z"/>
<path fill="#DE5672" opacity="1.000000" stroke="none" 
	d="
M238.009216,531.424194 
	C238.551819,532.017822 239.149872,532.933289 239.736115,534.197266 
	C239.171082,533.612488 238.617889,532.679321 238.009216,531.424194 
z"/>
<path fill="#E95C79" opacity="1.000000" stroke="none" 
	d="
M402.948059,336.765198 
	C401.989471,336.704712 400.707825,336.417389 399.121155,335.864319 
	C400.085724,335.911804 401.355377,336.225098 402.948059,336.765198 
z"/>
<path fill="#DE5672" opacity="1.000000" stroke="none" 
	d="
M236.700180,528.380127 
	C237.089661,528.813110 237.496277,529.583557 237.904343,530.686584 
	C237.509628,530.252014 237.113480,529.484741 236.700180,528.380127 
z"/>
<path fill="#DE5672" opacity="1.000000" stroke="none" 
	d="
M240.083313,535.270874 
	C240.431870,535.516235 240.834045,536.043823 241.171951,536.773560 
	C240.784088,536.501404 240.460510,536.027283 240.083313,535.270874 
z"/>
<path fill="#E06781" opacity="1.000000" stroke="none" 
	d="
M415.525269,431.073975 
	C415.551270,431.697113 415.373871,432.591553 414.967468,433.755127 
	C414.932922,433.131256 415.127380,432.238251 415.525269,431.073975 
z"/>
<path fill="#DE5672" opacity="1.000000" stroke="none" 
	d="
M240.856049,440.245758 
	C240.839340,440.553589 240.633240,441.069458 240.210693,441.764557 
	C240.218384,441.447113 240.442535,440.950470 240.856049,440.245758 
z"/>
<path fill="#E25A74" opacity="1.000000" stroke="none" 
	d="
M610.672119,443.962769 
	C610.707947,444.228760 610.534668,444.600800 610.202271,444.925964 
	C610.062500,444.546539 610.202454,444.276428 610.672119,443.962769 
z"/>
<path fill="#E25A74" opacity="1.000000" stroke="none" 
	d="
M611.449341,442.779480 
	C611.520569,442.940277 611.365601,443.264374 611.020203,443.783447 
	C610.960876,443.633209 611.092041,443.288025 611.449341,442.779480 
z"/>
<path fill="#E06781" opacity="1.000000" stroke="none" 
	d="
M414.659119,433.818756 
	C414.735168,434.001373 414.559265,434.298462 414.187378,434.763062 
	C414.129944,434.598083 414.268555,434.265686 414.659119,433.818756 
z"/>
</svg>